<svg xmlns="http://www.w3.org/2000/svg" style="display: none;">
  <!-- Home Icon -->
  <symbol id="home" viewBox="0 0 24 24" fill="none" stroke="currentColor" stroke-width="2" stroke-linecap="round" stroke-linejoin="round">
    <path d="M3 9L12 2L21 9V20C21 20.5304 20.7893 21.0391 20.4142 21.4142C20.0391 21.7893 19.5304 22 19 22H5C4.46957 22 3.96086 21.7893 3.58579 21.4142C3.21071 21.0391 3 20.5304 3 20V9Z"/>
    <polyline points="9,22 9,12 15,12 15,22"/>
  </symbol>
  
  <!-- User Icon -->
  <symbol id="user" viewBox="0 0 24 24" fill="none" stroke="currentColor" stroke-width="2" stroke-linecap="round" stroke-linejoin="round">
    <path d="M20 21V19C20 17.9391 19.5786 16.9217 18.8284 16.1716C18.0783 15.4214 17.0609 15 16 15H8C6.93913 15 5.92172 15.4214 5.17157 16.1716C4.42143 16.9217 4 17.9391 4 19V21"/>
    <circle cx="12" cy="7" r="4"/>
  </symbol>
  
  <!-- Code Icon -->
  <symbol id="code" viewBox="0 0 24 24" fill="none" stroke="currentColor" stroke-width="2" stroke-linecap="round" stroke-linejoin="round">
    <polyline points="16,18 22,12 16,6"/>
    <polyline points="8,6 2,12 8,18"/>
  </symbol>
  
  <!-- Folder Icon -->
  <symbol id="folder" viewBox="0 0 24 24" fill="none" stroke="currentColor" stroke-width="2" stroke-linecap="round" stroke-linejoin="round">
    <path d="M22 19C22 19.5304 21.7893 20.0391 21.4142 20.4142C21.0391 20.7893 20.5304 21 20 21H4C3.46957 21 2.96086 20.7893 2.58579 20.4142C2.21071 20.0391 2 19.5304 2 19V5C2 4.46957 2.21071 3.96086 2.58579 3.58579C2.96086 3.21071 3.46957 3 4 3H9L11 6H20C20.5304 6 21.0391 6.21071 21.4142 6.58579C21.7893 6.96086 22 7.46957 22 8V19Z"/>
  </symbol>
  
  <!-- Mail Icon -->
  <symbol id="mail" viewBox="0 0 24 24" fill="none" stroke="currentColor" stroke-width="2" stroke-linecap="round" stroke-linejoin="round">
    <path d="M4 4H20C21.1 4 22 4.9 22 6V18C22 19.1 21.1 20 20 20H4C2.9 20 2 19.1 2 18V6C2 4.9 2.9 4 4 4Z"/>
    <polyline points="22,6 12,13 2,6"/>
  </symbol>
  
  <!-- Phone Icon -->
  <symbol id="phone" viewBox="0 0 24 24" fill="none" stroke="currentColor" stroke-width="2" stroke-linecap="round" stroke-linejoin="round">
    <path d="M22 16.92V19C22 19.5304 21.7893 20.0391 21.4142 20.4142C21.0391 21.7893 20.5304 21 20 21C15.6783 21 11.5215 19.4196 8.46447 16.5355C5.40754 13.6514 3.82843 9.83696 4 6C4 5.46957 4.21071 4.96086 4.58579 4.58579C4.96086 4.21071 5.46957 4 6 4H8.08C8.36435 3.99918 8.64206 4.08691 8.87405 4.25063C9.10604 4.41435 9.2818 4.64616 9.37 4.91L10.37 7.91C10.4641 8.18432 10.4785 8.47865 10.4115 8.76006C10.3445 9.04148 10.1985 9.2971 9.99 9.5L8.82 10.67C9.74718 12.5358 11.2642 14.0528 13.13 14.98L14.3 13.81C14.5029 13.6015 14.7585 13.4555 15.0399 13.3885C15.3214 13.3215 15.6157 13.3359 15.89 13.43L18.89 14.43C19.1538 14.5182 19.3856 14.694 19.5493 14.9259C19.7131 15.1579 19.8008 15.4357 19.8 15.72L19.8 15.72Z"/>
  </symbol>
  
  <!-- Location Icon -->
  <symbol id="map-pin" viewBox="0 0 24 24" fill="none" stroke="currentColor" stroke-width="2" stroke-linecap="round" stroke-linejoin="round">
    <path d="M21 10C21 17 12 23 12 23S3 17 3 10C3 7.61305 3.94821 5.32387 5.63604 3.63604C7.32387 1.94821 9.61305 1 12 1C14.3869 1 16.6761 1.94821 18.364 3.63604C20.0518 5.32387 21 7.61305 21 10Z"/>
    <circle cx="12" cy="10" r="3"/>
  </symbol>
  
  <!-- External Link Icon -->
  <symbol id="external-link" viewBox="0 0 24 24" fill="none" stroke="currentColor" stroke-width="2" stroke-linecap="round" stroke-linejoin="round">
    <path d="M18 13V19C18 19.5304 17.7893 20.0391 17.4142 20.4142C17.0391 20.7893 16.5304 21 16 21H5C4.46957 21 3.96086 20.7893 3.58579 20.4142C3.21071 20.0391 3 19.5304 3 19V8C3 7.46957 3.21071 6.96086 3.58579 6.58579C3.96086 6.21071 4.46957 6 5 6H11"/>
    <path d="M15 3H21V9"/>
    <path d="M10 14L21 3"/>
  </symbol>
  
  <!-- GitHub Icon -->
  <symbol id="github" viewBox="0 0 24 24" fill="none" stroke="currentColor" stroke-width="2" stroke-linecap="round" stroke-linejoin="round">
    <path d="M9 19C-2 15.5 -2 8.5 9 5C20 8.5 20 15.5 9 19Z"/>
    <path d="M15 12H9"/>
  </symbol>
  
  <!-- LinkedIn Icon -->
  <symbol id="linkedin" viewBox="0 0 24 24" fill="none" stroke="currentColor" stroke-width="2" stroke-linecap="round" stroke-linejoin="round">
    <path d="M16 8C17.5913 8 19.1174 8.63214 20.2426 9.75736C21.3679 10.8826 22 12.4087 22 14V21H18V14C18 13.4696 17.7893 12.9609 17.4142 12.5858C17.0391 12.2107 16.5304 12 16 12C15.4696 12 14.9609 12.2107 14.5858 12.5858C14.2107 12.9609 14 13.4696 14 14V21H10V14C10 12.4087 10.6321 10.8826 11.7574 9.75736C12.8826 8.63214 14.4087 8 16 8Z"/>
    <rect x="2" y="9" width="4" height="12"/>
    <circle cx="4" cy="4" r="2"/>
  </symbol>
  
  <!-- Twitter Icon -->
  <symbol id="twitter" viewBox="0 0 24 24" fill="none" stroke="currentColor" stroke-width="2" stroke-linecap="round" stroke-linejoin="round">
    <path d="M23 3C22.0424 3.67548 20.9821 4.19211 19.86 4.53C19.2577 3.83751 18.4573 3.34669 17.567 3.12393C16.6767 2.90116 15.7395 2.957 14.8821 3.28445C14.0247 3.6119 13.2884 4.19439 12.773 4.95372C12.2575 5.71305 11.9877 6.61553 12 7.53V8.53C10.2426 8.57557 8.50127 8.18581 6.93101 7.39624C5.36074 6.60667 4.01032 5.43666 3 4C3 4 -1 13 8 17C5.94053 18.398 3.48716 19.099 1 19C10 24 21 19 21 7.5C20.9991 7.22145 20.9723 6.94359 20.92 6.67C21.9406 5.66349 22.6608 4.39271 23 3Z"/>
  </symbol>
  
  <!-- Send Icon -->
  <symbol id="send" viewBox="0 0 24 24" fill="none" stroke="currentColor" stroke-width="2" stroke-linecap="round" stroke-linejoin="round">
    <line x1="22" y1="2" x2="11" y2="13"/>
    <polygon points="22,2 15,22 11,13 2,9 22,2"/>
  </symbol>
</svg>
